<svg width="107" height="107" viewBox="0 0 107 107" fill="none" xmlns="http://www.w3.org/2000/svg">
<path d="M38.0626 22.6442C38.0626 22.6442 19.3812 48.5839 16.3941 53.2973C11.6137 60.8276 10.2653 70.4162 12.0585 77.5117C-9.65213 66.0035 -2.66652 20.4239 38.0673 22.6442H38.0626Z" fill="#632BFE"/>
<path d="M20.898 59.6767C20.898 59.6767 40.0991 85.2418 43.7089 89.5111C49.4819 96.3291 58.2982 100.561 65.6771 101.07C47.89 117.907 6.17295 97.2634 20.898 59.6767Z" fill="#632BFE"/>
<path d="M51.2422 87.2498C51.2422 87.2498 81.7879 77.1107 87.013 75.0338C95.3611 71.7174 102.159 64.7421 104.927 57.9658C115.644 79.8814 82.8741 112.699 51.2422 87.2498Z" fill="#632BFE"/>
<path d="M87.1636 67.2578C87.1636 67.2578 86.8406 35.4252 86.4566 29.8746C85.8433 21.0075 81.2315 12.4643 75.5615 7.7694C99.9737 4.47142 121.441 45.4024 87.1636 67.2578Z" fill="#632BFE"/>
<path d="M79.0213 27.3313C79.0213 27.3313 48.279 17.7982 42.815 16.4429C34.0877 14.2782 24.438 15.9757 18.1641 19.8519C22.5324 -4.10352 68.571 -11.6246 79.0213 27.3359V27.3313Z" fill="#632BFE"/>
</svg>
