<?xml version="1.0" encoding="UTF-8"?>
<svg id="Layer_1" data-name="Layer 1" xmlns="http://www.w3.org/2000/svg" viewBox="0 0 1150.71 228.54">
  <defs>
    <style>
      .cls-1 {
        fill: #632bfe;
      }
    </style>
  </defs>
  <g>
    <path class="cls-1" d="M273.03,66.65h65.09c31.3,0,37.96,17.65,37.96,29.8s-5.83,18.48-14.65,23.31c10.65,3.66,20.64,12.15,20.64,29.63,0,23.81-20.64,36.12-41.62,36.12h-67.42v-118.86ZM309.65,112.93h19.31c7.66,0,12.49-2.16,12.49-9.82,0-5.99-4.99-8.16-12.49-8.16h-19.31v17.98ZM309.65,157.21h21.47c7.66,0,14.32-2.16,14.32-11.32,0-6.99-4.16-10.82-12.82-10.82h-22.97v22.14Z"/>
    <path class="cls-1" d="M453.32,178.85c-2.66,7.66-5.66,17.48-10.82,23.97-8.66,10.82-21.97,10.65-34.79,10.65h-14.98v-26.3h7.66c3.33,0,7.66.33,9.99-.83,2-1,3.16-2.66,3.16-6.49,0-4.16-12.65-35.96-14.48-40.95l-14.65-39.79h35.29l13.82,49.61h.33l13.98-49.61h34.13l-28.63,79.74Z"/>
    <path class="cls-1" d="M535.07,99.11h17.65v20.31h-17.65v30.13c0,7.99,1.83,11.49,10.15,11.49,2.5,0,5-.17,7.49-.5v24.97c-6.66,0-14.15,1-21.14,1-13.98,0-29.47-2.17-29.47-25.8v-41.29h-14.65v-20.31h14.65v-26.3h32.96v26.3Z"/>
    <path class="cls-1" d="M591.01,149.72c.83,9.82,6.49,16.81,16.81,16.81,5.33,0,11.15-2,13.82-6.16h30.8c-6.66,18.65-24.8,27.3-44.45,27.3-27.63,0-48.44-16.31-48.44-45.11,0-25.14,18.31-45.61,45.61-45.61,34.29,0,49.11,19.14,49.11,52.77h-63.26ZM622.64,132.57c0-7.99-5.99-14.48-14.48-14.48-9.82,0-15.48,5.16-16.98,14.48h31.46Z"/>
    <path class="cls-1" d="M668.59,66.65h36.62v41.29h34.29v-41.29h36.62v118.86h-36.62v-47.11h-34.29v47.11h-36.62v-118.86Z"/>
    <path class="cls-1" d="M837.9,187.68c-32.46,0-47.11-21.47-47.11-45.45s14.65-45.28,47.11-45.28,47.11,21.31,47.11,45.28-14.65,45.45-47.11,45.45ZM837.9,120.92c-12.49,0-14.15,12.15-14.15,21.31s1.67,21.47,14.15,21.47,14.15-12.32,14.15-21.47-1.66-21.31-14.15-21.31Z"/>
    <path class="cls-1" d="M899.16,99.11h31.8v11.49h.33c6.66-9.99,16.31-13.65,28.3-13.65,9.32,0,19.31,4.83,23.31,13.48,1.33-1,7.99-13.48,29.47-13.48s29.63,15.32,29.63,29.3v59.26h-32.96v-46.78c0-8.16-.83-15.48-10.82-15.48-8.32,0-11.15,6.49-11.15,15.48v46.78h-32.96v-46.78c0-8.16-.83-15.48-10.82-15.48-8.32,0-11.15,6.49-11.15,15.48v46.78h-32.96v-86.4Z"/>
    <path class="cls-1" d="M1087.45,149.72c.83,9.82,6.49,16.81,16.81,16.81,5.33,0,11.15-2,13.82-6.16h30.8c-6.66,18.65-24.8,27.3-44.45,27.3-27.63,0-48.44-16.31-48.44-45.11,0-25.14,18.31-45.61,45.61-45.61,34.29,0,49.11,19.14,49.11,52.77h-63.26ZM1119.08,132.57c0-7.99-5.99-14.48-14.48-14.48-9.82,0-15.48,5.16-16.98,14.48h31.46Z"/>
  </g>
  <g>
    <path class="cls-1" d="M182.37,81.3s-56.08-39.9-66.27-46.28c-16.28-10.21-37.01-13.09-52.35-9.26,24.88-46.37,123.42-31.45,118.62,55.55Z"/>
    <path class="cls-1" d="M102.31,44.64s-55.27,41.01-64.5,48.72c-14.74,12.33-23.89,31.16-24.99,46.92C-23.58,102.29,21.05,13.19,102.31,44.64Z"/>
    <path class="cls-1" d="M42.7,109.45s21.92,65.24,26.41,76.4c7.17,17.83,22.25,32.35,36.9,38.26-47.38,22.89-118.33-47.1-63.31-114.66Z"/>
    <path class="cls-1" d="M85.92,186.17s68.82-.69,80.82-1.51c19.17-1.31,37.64-11.16,47.79-23.27,7.13,52.14-81.36,97.99-128.61,24.78Z"/>
    <path class="cls-1" d="M172.24,168.78s20.61-65.66,23.54-77.33c4.68-18.64,1.01-39.25-7.37-52.65,51.79,9.33,68.05,107.66-16.18,129.98Z"/>
  </g>
</svg>